<svg xmlns="http://www.w3.org/2000/svg" version="1.1" xmlns:xlink="http://www.w3.org/1999/xlink" xmlns:svgjs="http://svgjs.com/svgjs" width="1000" height="1000"><rect width="1000" height="1000" rx="200" ry="200" fill="#feecec"></rect><g transform="matrix(0.45,0,0,0.45,50,50)"><svg xmlns="http://www.w3.org/2000/svg" version="1.1" xmlns:xlink="http://www.w3.org/1999/xlink" xmlns:svgjs="http://svgjs.com/svgjs" width="2000" height="2000"><svg xmlns="http://www.w3.org/2000/svg" version="1.1" xmlns:xlink="http://www.w3.org/1999/xlink" xmlns:svgjs="http://svgjs.dev/svgjs" width="2000" height="2000" viewBox="0 0 2000 2000"><g transform="matrix(1,0,0,1,0,0)"><svg viewBox="0 0 280 280" data-background-color="#f8f1e8" preserveAspectRatio="xMidYMid meet" height="2000" width="2000" xmlns="http://www.w3.org/2000/svg" xmlns:xlink="http://www.w3.org/1999/xlink"><g id="tight-bounds" transform="matrix(1,0,0,1,0,0)"><svg viewBox="0 0 280 280" height="280" width="280"><g><svg viewBox="0 0 280 280" height="280" width="280"><g><svg viewBox="0 0 280 280" height="280" width="280"><g id="textblocktransform"><svg viewBox="0 0 280 280" height="280" width="280" id="textblock"><g><svg viewBox="0 0 280 280" height="280" width="280"><g transform="matrix(1,0,0,1,22.525993418874904,22.525993418874904)"><svg viewBox="0 0 234.9480131622502 234.9480131622502" height="234.9480131622502" width="234.9480131622502"><g id="icon-0"><svg xmlns="http://www.w3.org/2000/svg" xmlns:xlink="http://www.w3.org/1999/xlink" version="1.1" x="0" y="0" viewBox="2 2 60 60" style="enable-background:new 0 0 64 64;" xml:space="preserve" height="234.9480131622502" width="234.9480131622502" class="icon-xg-0" data-fill-palette-color="accent" id="xg-0"><path d="M3 58h1v3c0 0.552 0.447 1 1 1h4c0.553 0 1-0.448 1-1v-3h12v3c0 0.552 0.447 1 1 1h4c0.553 0 1-0.448 1-1v-3h1c0.553 0 1-0.448 1-1V46c0-1.858-1.279-3.411-3-3.858V39c0-2.757-2.243-5-5-5H10c-2.757 0-5 2.243-5 5v3.142c-1.721 0.447-3 2-3 3.858v11C2 57.552 2.447 58 3 58zM8 60H6v-2h2V60zM26 60h-2v-2h2V60zM7 39c0-1.654 1.346-3 3-3h12c1.654 0 3 1.346 3 3v3.126c-0.139 0.036-0.27 0.091-0.404 0.141-0.06 0.023-0.123 0.038-0.182 0.064-0.221 0.096-0.432 0.21-0.63 0.343-0.043 0.029-0.08 0.065-0.122 0.096-0.151 0.11-0.297 0.227-0.431 0.356-0.06 0.058-0.114 0.122-0.17 0.184-0.105 0.115-0.205 0.233-0.297 0.36-0.053 0.074-0.102 0.149-0.15 0.227-0.081 0.129-0.153 0.263-0.218 0.402-0.039 0.082-0.078 0.163-0.111 0.248-0.06 0.153-0.106 0.312-0.147 0.474-0.02 0.077-0.045 0.151-0.06 0.23C22.029 45.494 22 45.743 22 46v4H10v-4c0-0.257-0.029-0.506-0.076-0.75-0.015-0.079-0.04-0.153-0.06-0.23-0.041-0.162-0.087-0.321-0.147-0.474-0.033-0.085-0.072-0.166-0.111-0.248-0.066-0.139-0.138-0.272-0.218-0.402-0.048-0.077-0.097-0.153-0.15-0.227-0.091-0.127-0.192-0.245-0.297-0.36-0.057-0.062-0.11-0.126-0.17-0.184-0.134-0.13-0.28-0.246-0.431-0.356-0.042-0.031-0.079-0.067-0.122-0.096-0.198-0.133-0.409-0.247-0.63-0.343-0.059-0.026-0.122-0.041-0.182-0.064C7.27 42.217 7.139 42.162 7 42.126V39zM4 46c0-1.103 0.897-2 2-2s2 0.897 2 2v5c0 0.552 0.447 1 1 1h14c0.553 0 1-0.448 1-1v-5c0-1.103 0.897-2 2-2s2 0.897 2 2v10H4V46z" fill="#e71c24" data-fill-palette-color="accent"></path><path d="M61 40h-4.22l-0.811-3.243C55.858 36.312 55.459 36 55 36h-3v-2h6c0.553 0 1-0.448 1-1V23c0-0.552-0.447-1-1-1h-4v-3c0-0.43-0.274-0.789-0.655-0.93l3.362-3.362-1.414-1.414L51 17.586l-4.293-4.293-1.414 1.414 3.363 3.363C48.274 18.211 48 18.57 48 19v3h-4c-0.553 0-1 0.448-1 1v10c0 0.552 0.447 1 1 1h6v2h-3c-0.459 0-0.858 0.312-0.97 0.757L45.22 40H41c-0.553 0-1 0.448-1 1v6 10 5h2v-4h18v4h2v-5V47v-6C62 40.448 61.553 40 61 40zM50 20h2v2h-2V20zM45 24h12v8H45V24zM60 48v8h-8v-8H60zM47.781 38h6.438l0.5 2h-7.438L47.781 38zM42 42h18v4H42V42zM42 48h8v8h-8V48z" fill="#e71c24" data-fill-palette-color="accent"></path><rect x="54" y="51" width="2" height="2" fill="#e71c24" data-fill-palette-color="accent"></rect><rect x="46" y="51" width="2" height="2" fill="#e71c24" data-fill-palette-color="accent"></rect><path d="M41 23c0.294 0 0.573-0.129 0.763-0.354 0.19-0.225 0.272-0.521 0.224-0.811l-2-12C39.906 9.354 39.489 9 39 9h-8c-0.489 0-0.906 0.354-0.986 0.835l-2 12c-0.049 0.29 0.033 0.586 0.224 0.811C28.427 22.871 28.706 23 29 23h5v37h-2v2h6v-2h-2V23H41zM31.847 11h6.307l1.666 10h-9.639L31.847 11z" fill="#e71c24" data-fill-palette-color="accent"></path><path d="M3 24h22c0.553 0 1-0.448 1-1V9c0-0.552-0.447-1-1-1h-1.697l-8.748-5.832c-0.336-0.224-0.773-0.224-1.109 0L4.697 8H3C2.447 8 2 8.448 2 9v14C2 23.552 2.447 24 3 24zM14 4.202L19.697 8H8.303L14 4.202zM4 10h20v12H4V10z" fill="#e71c24" data-fill-palette-color="accent"></path><path d="M17.832 12.445c-0.371-0.557-1.293-0.557-1.664 0l-3.216 4.824L10.8 14.4c-0.377-0.504-1.223-0.504-1.6 0l-3 4c-0.228 0.303-0.264 0.708-0.095 1.047C6.275 19.786 6.621 20 7 20h5.997c0.001 0 0.002 0 0.003 0s0.002 0 0.003 0H21c0.369 0 0.708-0.203 0.882-0.528s0.154-0.72-0.05-1.026L17.832 12.445zM9 18l1-1.333L11 18H9zM14.868 18L17 14.803 19.132 18H14.868z" fill="#e71c24" data-fill-palette-color="accent"></path></svg></g></svg></g><g id="text-0"><path d="M143.596 6.047v0c-0.013-1.403-0.655-2.451-1.927-3.145v0c-0.54-0.257-1.094-0.383-1.661-0.378v0c-1.403 0.013-2.433 0.655-3.09 1.926v0c-0.257 0.54-0.383 1.094-0.377 1.661v0c0.013 1.432 0.655 2.459 1.925 3.079v0c0.504 0.264 1.04 0.394 1.607 0.389v0c1.432-0.013 2.477-0.622 3.135-1.828v0c0.264-0.54 0.393-1.109 0.388-1.704z" fill="#ffffff" data-fill-palette-color="primary"></path><path d="M140.782 276.703v0c0.001-0.313-0.141-0.549-0.423-0.709v0c-0.116-0.058-0.24-0.088-0.371-0.088v0c-0.313-0.001-0.542 0.141-0.688 0.424v0c-0.058 0.116-0.088 0.24-0.088 0.37v0c-0.001 0.313 0.137 0.542 0.413 0.688v0c0.116 0.058 0.236 0.088 0.36 0.088v0c0.32 0.001 0.556-0.133 0.709-0.402v0c0.058-0.116 0.088-0.24 0.088-0.371z" fill="#ffffff" data-fill-palette-color="primary"></path><path d="M0 136.776c0-1.436 1.164-2.599 2.599-2.599 1.436 0 2.599 1.164 2.6 2.599 0 1.436-1.164 2.599-2.6 2.6-1.436 0-2.599-1.164-2.599-2.6z" fill="#ffffff" data-fill-palette-color="primary"></path><path d="M274.801 136.776c0-1.436 1.164-2.599 2.6-2.599 1.436 0 2.599 1.164 2.599 2.599 0 1.436-1.164 2.599-2.599 2.6-1.436 0-2.599-1.164-2.6-2.6z" fill="#ffffff" data-fill-palette-color="primary"></path></g><g id="text-1"></g></svg></g></svg></g></svg></g></svg></g><defs></defs></svg><rect width="280" height="280" fill="none" stroke="none" visibility="hidden"></rect></g></svg></g></svg></svg></g></svg>