<svg xmlns="http://www.w3.org/2000/svg" version="1.1" xmlns:xlink="http://www.w3.org/1999/xlink" xmlns:svgjs="http://svgjs.dev/svgjs" width="2000" height="343" viewBox="0 0 2000 343"><g transform="matrix(1,0,0,1,-1.2121212121212466,0.5389327691900974)"><svg viewBox="0 0 396 68" data-background-color="#f8f1e8" preserveAspectRatio="xMidYMid meet" height="343" width="2000" xmlns="http://www.w3.org/2000/svg" xmlns:xlink="http://www.w3.org/1999/xlink"><g id="tight-bounds" transform="matrix(1,0,0,1,0.2400000000000091,-0.10684381430007761)"><svg viewBox="0 0 395.52 68.21368762860014" height="68.21368762860014" width="395.52"><g><svg viewBox="0 0 496.71311094689406 85.66604214998391" height="68.21368762860014" width="395.52"><g transform="matrix(1,0,0,1,101.19311094689411,29.678724325716125)"><svg viewBox="0 0 395.52 26.30859349855166" height="26.30859349855166" width="395.52"><g id="textblocktransform"><svg viewBox="0 0 395.52 26.30859349855166" height="26.30859349855166" width="395.52" id="textblock"><g><svg viewBox="0 0 395.52 26.30859349855166" height="26.30859349855166" width="395.52"><g transform="matrix(1,0,0,1,0,0)"><svg width="395.52" viewBox="0.98 -29.79 455.09 30.279999999999998" height="26.30859349855166" data-palette-color="#e71c24"><path d="M0.98 0L15.63 0Q15.33-1.22 14.31-1.32L14.31-1.32 11.72-1.32 11.72-27.98 15.63-27.98 15.63-29.3 0.98-29.3 0.98-27.98 4.88-27.98 4.88-1.32 0.98-1.32 0.98 0ZM38.91-29.3L38.91-27.98 42.82-27.98 42.82-9.08 25.58-29.3 17.33-29.3 17.33-27.98 21.24-27.98 21.24-1.32 17.33-1.32 17.33 0 27.44 0Q27.15-1.22 26.12-1.32L26.12-1.32 23.29-1.32 23.29-21.68 42.09 0.24 44.87-0.24 44.87-27.98 48.78-27.98 48.78-29.3 38.91-29.3ZM54.54 0L70.65 0Q70.36-1.22 69.33-1.32L69.33-1.32 66.01-1.32 66.01-27.98 66.84-27.98Q70.36-27.98 71.82-24.85L71.82-24.85Q72.11-24.17 72.46-23.24L72.46-23.24 73.97-18.85 75.43-18.85 75.24-29.3 49.95-29.3 49.75-18.85 51.22-18.85 52.73-23.24Q53.8-26.37 55.51-27.34L55.51-27.34Q56.68-27.98 58.34-27.98L58.34-27.98 59.17-27.98 59.17-1.32 54.54-1.32 54.54 0ZM100.33-19.92L101.75-19.92 101.56-29.3 77.14-29.3 77.14-27.98 81.05-27.98 81.05-1.32 77.14-1.32 77.14 0 101.56 0 101.75-9.38 100.33-9.38 99.21-6.01Q97.94-2.25 95.16-1.51L95.16-1.51Q94.33-1.32 93.4-1.32L93.4-1.32 87.88-1.32 87.88-14.36 97.26-14.36 97.26-15.82 87.88-15.82 87.88-27.98 93.4-27.98Q97.4-27.98 98.92-24.17L98.92-24.17Q99.11-23.73 99.26-23.29L99.26-23.29 100.33-19.92ZM104.92 0L119.57 0 119.57-1.32 115.66-1.32 115.66-13.38 118.06-13.38 125.33 0.05 133.93 0Q133.93-1.07 133.14-1.22L133.14-1.22Q132.9-1.27 132.66-1.27L132.66-1.27 132.02-1.27 124.5-13.96Q129.63-15.38 130.8-19.53L130.8-19.53Q131.09-20.56 131.09-21.63L131.09-21.63Q131.09-25.24 127.87-27.44L127.87-27.44Q125.14-29.3 121.23-29.3L121.23-29.3 104.92-29.3 104.92-27.98 108.83-27.98 108.83-1.32 104.92-1.32 104.92 0ZM115.66-27.98L118.3-27.98Q122.3-27.98 123.48-24.02L123.48-24.02Q123.82-22.75 123.82-21.39L123.82-21.39Q123.82-17.19 121.28-15.58L121.28-15.58Q120.16-14.84 118.69-14.84L118.69-14.84 115.66-14.84 115.66-27.98ZM134.9 0L149.55 0Q149.26-1.22 148.23-1.32L148.23-1.32 145.64-1.32 145.64-27.98 149.55-27.98 149.55-29.3 134.9-29.3 134.9-27.98 138.81-27.98 138.81-1.32 134.9-1.32 134.9 0ZM167.86-29.79L167.86-29.79Q161.36-29.79 156.87-25.68L156.87-25.68Q152.23-21.44 152.23-14.75L152.23-14.75Q152.23-7.08 157.75-2.78L157.75-2.78Q162 0.49 167.71 0.49L167.71 0.49Q174.2 0.49 178.65-3.61L178.65-3.61Q183.19-7.91 183.19-14.55L183.19-14.55Q183.19-22.61 177.48-26.81L177.48-26.81Q173.37-29.79 167.86-29.79ZM167.86-0.93L167.86-0.93Q162.88-0.93 161.12-5.47L161.12-5.47Q159.9-8.69 159.9-14.55L159.9-14.55Q159.9-25.73 164.73-27.78L164.73-27.78Q166.05-28.37 167.71-28.37L167.71-28.37Q173.23-28.37 174.79-22.17L174.79-22.17Q175.52-19.19 175.52-14.79L175.52-14.79Q175.52-4.39 171.62-1.9L171.62-1.9Q170.1-0.93 167.86-0.93ZM185.87 0L200.52 0 200.52-1.32 196.61-1.32 196.61-13.38 199.01-13.38 206.28 0.05 214.88 0Q214.88-1.07 214.09-1.22L214.09-1.22Q213.85-1.27 213.61-1.27L213.61-1.27 212.97-1.27 205.45-13.96Q210.58-15.38 211.75-19.53L211.75-19.53Q212.04-20.56 212.04-21.63L212.04-21.63Q212.04-25.24 208.82-27.44L208.82-27.44Q206.09-29.3 202.18-29.3L202.18-29.3 185.87-29.3 185.87-27.98 189.78-27.98 189.78-1.32 185.87-1.32 185.87 0ZM196.61-27.98L199.25-27.98Q203.25-27.98 204.43-24.02L204.43-24.02Q204.77-22.75 204.77-21.39L204.77-21.39Q204.77-17.19 202.23-15.58L202.23-15.58Q201.11-14.84 199.64-14.84L199.64-14.84 196.61-14.84 196.61-27.98ZM225.37 0L240.02 0Q239.72-1.22 238.7-1.32L238.7-1.32 236.11-1.32 236.11-14.36 248.51-14.36 248.51-1.32 244.61-1.32 244.61 0 259.25 0Q258.96-1.22 257.94-1.32L257.94-1.32 255.35-1.32 255.35-27.98 259.25-27.98 259.25-29.3 244.61-29.3 244.61-27.98 248.51-27.98 248.51-15.82 236.11-15.82 236.11-27.98 240.02-27.98 240.02-29.3 225.37-29.3 225.37-27.98 229.27-27.98 229.27-1.32 225.37-1.32 225.37 0ZM278.73 0L291.82 0Q291.82-1.17 291.19-1.27L291.19-1.27Q290.94-1.32 290.65-1.32L290.65-1.32 289.18-1.32 277.66-29.3 274.05-29.3 263.35-1.32 260.23-1.32 260.23 0 269.21 0Q269.21-1.17 268.58-1.27L268.58-1.27Q268.33-1.32 268.04-1.32L268.04-1.32 265.31-1.32 268.82-10.69 278.54-10.69 282.2-1.32 278.73-1.32 278.73 0ZM273.61-23.39L277.95-12.16 269.41-12.16 273.61-23.39ZM292.79 0L307.44 0 307.44-1.32 303.54-1.32 303.54-13.38 305.93-13.38 313.2 0.05 321.8 0Q321.8-1.07 321.02-1.22L321.02-1.22Q320.77-1.27 320.53-1.27L320.53-1.27 319.89-1.27 312.37-13.96Q317.5-15.38 318.67-19.53L318.67-19.53Q318.97-20.56 318.97-21.63L318.97-21.63Q318.97-25.24 315.74-27.44L315.74-27.44Q313.01-29.3 309.1-29.3L309.1-29.3 292.79-29.3 292.79-27.98 296.7-27.98 296.7-1.32 292.79-1.32 292.79 0ZM303.54-27.98L306.17-27.98Q310.18-27.98 311.35-24.02L311.35-24.02Q311.69-22.75 311.69-21.39L311.69-21.39Q311.69-17.19 309.15-15.58L309.15-15.58Q308.03-14.84 306.56-14.84L306.56-14.84 303.54-14.84 303.54-27.98ZM360.52-27.98L360.52-29.3 350.02-29.3 341.28-8.3 331.02-29.3 322.28-29.3 322.28-27.98 326.19-27.98 326.19-1.32 322.28-1.32 322.28 0 332.15 0Q331.85-1.22 330.83-1.32L330.83-1.32 328.24-1.32 328.24-19.73 338.64 0.49 339.52 0.49 350.02-24.51 350.02-1.32 346.11-1.32 346.11 0 360.52 0Q360.22-1.22 359.2-1.32L359.2-1.32 356.61-1.32 356.61-27.98 360.52-27.98ZM378.34-29.79L378.34-29.79Q371.84-29.79 367.35-25.68L367.35-25.68Q362.71-21.44 362.71-14.75L362.71-14.75Q362.71-7.08 368.23-2.78L368.23-2.78Q372.48 0.49 378.19 0.49L378.19 0.49Q384.68 0.49 389.13-3.61L389.13-3.61Q393.67-7.91 393.67-14.55L393.67-14.55Q393.67-22.61 387.96-26.81L387.96-26.81Q383.85-29.79 378.34-29.79ZM378.34-0.93L378.34-0.93Q373.36-0.93 371.6-5.47L371.6-5.47Q370.38-8.69 370.38-14.55L370.38-14.55Q370.38-25.73 375.21-27.78L375.21-27.78Q376.53-28.37 378.19-28.37L378.19-28.37Q383.71-28.37 385.27-22.17L385.27-22.17Q386-19.19 386-14.79L386-14.79Q386-4.39 382.1-1.9L382.1-1.9Q380.58-0.93 378.34-0.93ZM417.69-29.3L417.69-27.98 421.6-27.98 421.6-9.08 404.36-29.3 396.11-29.3 396.11-27.98 400.01-27.98 400.01-1.32 396.11-1.32 396.11 0 406.22 0Q405.92-1.22 404.9-1.32L404.9-1.32 402.06-1.32 402.06-21.68 420.86 0.24 423.65-0.24 423.65-27.98 427.55-27.98 427.55-29.3 417.69-29.3ZM434.68 0L449.82 0Q449.52-1.22 448.5-1.32L448.5-1.32 445.67-1.32 445.67-12.74 452.31-26.61Q453.23-27.93 454.75-27.98L454.75-27.98Q455.97-28.27 456.07-29.3L456.07-29.3 447.47-29.3 447.47-27.98 451.38-27.98 444.79-14.45 437.66-27.98 441.37-27.98 441.37-29.3 427.7-29.3 427.7-27.98 429.99-27.98 438.83-12.4 438.83-1.32 434.68-1.32 434.68 0Z" opacity="1" transform="matrix(1,0,0,1,0,0)" fill="#e71c24" class="wordmark-text-0" data-fill-palette-color="primary" id="text-0"></path></svg></g></svg></g></svg></g></svg></g><g><svg viewBox="0 0 85.66604214998391 85.66604214998391" height="85.66604214998391" width="85.66604214998391"><g><svg viewBox="0 0 85.66604214998391 85.66604214998391" height="85.66604214998391" width="85.66604214998391"><g transform="matrix(1,0,0,1,22.64134130110321,22.64134130110321)"><svg viewBox="0 0 40.38335954777749 40.38335954777749" height="40.38335954777749" width="40.38335954777749"><g><svg xmlns="http://www.w3.org/2000/svg" xmlns:xlink="http://www.w3.org/1999/xlink" version="1.1" x="0" y="0" viewBox="2 2 60 60" style="enable-background:new 0 0 64 64;" xml:space="preserve" height="40.38335954777749" width="40.38335954777749" class="icon-cg-0" data-fill-palette-color="accent" id="cg-0"><path d="M3 58h1v3c0 0.552 0.447 1 1 1h4c0.553 0 1-0.448 1-1v-3h12v3c0 0.552 0.447 1 1 1h4c0.553 0 1-0.448 1-1v-3h1c0.553 0 1-0.448 1-1V46c0-1.858-1.279-3.411-3-3.858V39c0-2.757-2.243-5-5-5H10c-2.757 0-5 2.243-5 5v3.142c-1.721 0.447-3 2-3 3.858v11C2 57.552 2.447 58 3 58zM8 60H6v-2h2V60zM26 60h-2v-2h2V60zM7 39c0-1.654 1.346-3 3-3h12c1.654 0 3 1.346 3 3v3.126c-0.139 0.036-0.27 0.091-0.404 0.141-0.06 0.023-0.123 0.038-0.182 0.064-0.221 0.096-0.432 0.21-0.63 0.343-0.043 0.029-0.08 0.065-0.122 0.096-0.151 0.11-0.297 0.227-0.431 0.356-0.06 0.058-0.114 0.122-0.17 0.184-0.105 0.115-0.205 0.233-0.297 0.36-0.053 0.074-0.102 0.149-0.15 0.227-0.081 0.129-0.153 0.263-0.218 0.402-0.039 0.082-0.078 0.163-0.111 0.248-0.06 0.153-0.106 0.312-0.147 0.474-0.02 0.077-0.045 0.151-0.06 0.23C22.029 45.494 22 45.743 22 46v4H10v-4c0-0.257-0.029-0.506-0.076-0.75-0.015-0.079-0.04-0.153-0.06-0.23-0.041-0.162-0.087-0.321-0.147-0.474-0.033-0.085-0.072-0.166-0.111-0.248-0.066-0.139-0.138-0.272-0.218-0.402-0.048-0.077-0.097-0.153-0.15-0.227-0.091-0.127-0.192-0.245-0.297-0.36-0.057-0.062-0.11-0.126-0.17-0.184-0.134-0.13-0.28-0.246-0.431-0.356-0.042-0.031-0.079-0.067-0.122-0.096-0.198-0.133-0.409-0.247-0.63-0.343-0.059-0.026-0.122-0.041-0.182-0.064C7.27 42.217 7.139 42.162 7 42.126V39zM4 46c0-1.103 0.897-2 2-2s2 0.897 2 2v5c0 0.552 0.447 1 1 1h14c0.553 0 1-0.448 1-1v-5c0-1.103 0.897-2 2-2s2 0.897 2 2v10H4V46z" fill="#e71c24" data-fill-palette-color="accent"></path><path d="M61 40h-4.22l-0.811-3.243C55.858 36.312 55.459 36 55 36h-3v-2h6c0.553 0 1-0.448 1-1V23c0-0.552-0.447-1-1-1h-4v-3c0-0.43-0.274-0.789-0.655-0.93l3.362-3.362-1.414-1.414L51 17.586l-4.293-4.293-1.414 1.414 3.363 3.363C48.274 18.211 48 18.57 48 19v3h-4c-0.553 0-1 0.448-1 1v10c0 0.552 0.447 1 1 1h6v2h-3c-0.459 0-0.858 0.312-0.97 0.757L45.22 40H41c-0.553 0-1 0.448-1 1v6 10 5h2v-4h18v4h2v-5V47v-6C62 40.448 61.553 40 61 40zM50 20h2v2h-2V20zM45 24h12v8H45V24zM60 48v8h-8v-8H60zM47.781 38h6.438l0.5 2h-7.438L47.781 38zM42 42h18v4H42V42zM42 48h8v8h-8V48z" fill="#e71c24" data-fill-palette-color="accent"></path><rect x="54" y="51" width="2" height="2" fill="#e71c24" data-fill-palette-color="accent"></rect><rect x="46" y="51" width="2" height="2" fill="#e71c24" data-fill-palette-color="accent"></rect><path d="M41 23c0.294 0 0.573-0.129 0.763-0.354 0.19-0.225 0.272-0.521 0.224-0.811l-2-12C39.906 9.354 39.489 9 39 9h-8c-0.489 0-0.906 0.354-0.986 0.835l-2 12c-0.049 0.29 0.033 0.586 0.224 0.811C28.427 22.871 28.706 23 29 23h5v37h-2v2h6v-2h-2V23H41zM31.847 11h6.307l1.666 10h-9.639L31.847 11z" fill="#e71c24" data-fill-palette-color="accent"></path><path d="M3 24h22c0.553 0 1-0.448 1-1V9c0-0.552-0.447-1-1-1h-1.697l-8.748-5.832c-0.336-0.224-0.773-0.224-1.109 0L4.697 8H3C2.447 8 2 8.448 2 9v14C2 23.552 2.447 24 3 24zM14 4.202L19.697 8H8.303L14 4.202zM4 10h20v12H4V10z" fill="#e71c24" data-fill-palette-color="accent"></path><path d="M17.832 12.445c-0.371-0.557-1.293-0.557-1.664 0l-3.216 4.824L10.8 14.4c-0.377-0.504-1.223-0.504-1.6 0l-3 4c-0.228 0.303-0.264 0.708-0.095 1.047C6.275 19.786 6.621 20 7 20h5.997c0.001 0 0.002 0 0.003 0s0.002 0 0.003 0H21c0.369 0 0.708-0.203 0.882-0.528s0.154-0.72-0.05-1.026L17.832 12.445zM9 18l1-1.333L11 18H9zM14.868 18L17 14.803 19.132 18H14.868z" fill="#e71c24" data-fill-palette-color="accent"></path></svg></g></svg></g><g id="text-0"><path d="M6.51 33.785l0.868-2.846c-0.173-0.01-0.286 0.05-0.34 0.181v0l-0.153 0.502-5.18-1.581 0.233-0.762-0.251-0.077-0.868 2.846 0.25 0.077 0.23-0.753 5.18 1.581-0.23 0.752z" fill="#e71c24" data-fill-palette-color="accent"></path><path d="M4.179 23.671l0.236 0.113 0.338-0.711 3.471 1.649-5.21 1.4-0.718 1.512 0.237 0.113 0.337-0.711 4.892 2.324-0.337 0.711 0.246 0.116 0.878-1.849c-0.166-0.042-0.286-0.002-0.358 0.12v0l-0.247 0.519-3.735-1.774 5.667-1.54 0.151-0.553-5.092-2.419 0.342-0.72-0.237-0.113z" fill="#e71c24" data-fill-palette-color="accent"></path><path d="M11.303 23.12l1.888-2.68c-0.161-0.064-0.287-0.042-0.379 0.066v0l-0.39 0.553-4.427-3.12 0.099-0.14c0.275-0.39 0.644-0.546 1.106-0.467v0c0.096 0.027 0.21 0.058 0.341 0.093v0l0.906 0.256 0.169-0.239-1.755-1.187-2.957 4.196 1.708 1.253 0.169-0.239-0.546-0.767c-0.265-0.359-0.385-0.674-0.359-0.943v0c0.021-0.182 0.096-0.364 0.224-0.546v0l0.099-0.14 4.428 3.119-0.546 0.775z" fill="#e71c24" data-fill-palette-color="accent"></path><path d="M14.64 12.854l0.204-0.21-1.39-1.29-3.453 3.564 0.189 0.183 0.547-0.566 3.891 3.768-0.548 0.565 0.196 0.19 3.452-3.564-1.341-1.356-0.204 0.21 0.332 0.644c0.25 0.476 0.278 0.882 0.083 1.219v0c-0.06 0.101-0.135 0.197-0.223 0.288v0l-0.779 0.805-1.898-1.839 1.326-1.369-0.217-0.211-1.327 1.37-1.775-1.719 0.779-0.804c0.379-0.391 0.827-0.482 1.344-0.272v0c0.062 0.023 0.12 0.05 0.172 0.083v0z" fill="#e71c24" data-fill-palette-color="accent"></path><path d="M18.564 14.8l2.406-1.75-0.16-0.22-0.644 0.469-1.441-1.983 0.392-0.285 2.806 1.34 1.405-1.034c-0.087-0.12-0.18-0.156-0.279-0.109v0c-0.026 0.01-0.052 0.025-0.079 0.045v0l-0.106 0.077-2.752-1.179c0.451-0.569 0.573-1.127 0.366-1.675v0c-0.046-0.132-0.113-0.259-0.2-0.378v0c-0.289-0.397-0.697-0.587-1.224-0.569v0c-0.445 0.016-0.883 0.18-1.313 0.492v0l-2.676 1.945 0.154 0.212 0.637-0.462 3.184 4.381-0.637 0.462zM16.982 8.917l0.432-0.314c0.441-0.32 0.884-0.31 1.331 0.03v0c0.137 0.108 0.261 0.239 0.371 0.391v0c0.336 0.462 0.426 0.883 0.27 1.263v0c-0.06 0.169-0.172 0.312-0.335 0.431v0l-0.498 0.361z" fill="#e71c24" data-fill-palette-color="accent"></path><path d="M23.93 11.013l2.621-1.407c-0.115-0.129-0.238-0.166-0.369-0.111v0l-0.462 0.248-2.561-4.772 0.702-0.377-0.124-0.231-2.622 1.407 0.124 0.231 0.694-0.372 2.561 4.772-0.693 0.372z" fill="#e71c24" data-fill-palette-color="accent"></path><path d="M28.404 2.442v0c-0.828 0.299-1.434 0.811-1.816 1.535v0c-0.398 0.759-0.443 1.565-0.134 2.418v0c0.352 0.974 0.981 1.608 1.887 1.903v0c0.688 0.223 1.396 0.204 2.124-0.059v0c0.828-0.299 1.433-0.814 1.812-1.545v0c0.379-0.752 0.416-1.551 0.11-2.398v0c-0.372-1.031-1.018-1.681-1.937-1.949v0c-0.656-0.192-1.338-0.16-2.046 0.095zM30.394 7.953v0c-0.632 0.228-1.163 0.095-1.592-0.4v0c-0.307-0.354-0.595-0.904-0.864-1.651v0c-0.516-1.429-0.514-2.384 0.005-2.865v0c0.143-0.138 0.319-0.244 0.528-0.319v0c0.708-0.256 1.303-0.024 1.785 0.696v0c0.232 0.345 0.449 0.799 0.653 1.362v0c0.477 1.322 0.524 2.234 0.141 2.737v0c-0.146 0.189-0.365 0.336-0.656 0.44z" fill="#e71c24" data-fill-palette-color="accent"></path><path d="M34.289 6.902l2.939-0.462-0.042-0.269-0.787 0.124-0.381-2.421 0.478-0.076 1.89 2.47 1.722-0.281c-0.023-0.146-0.089-0.221-0.199-0.224v0c-0.028-0.002-0.058-0.001-0.091 0.004v0l-0.13 0.02-1.914-2.302c0.66-0.301 1.023-0.743 1.088-1.325v0c0.019-0.139 0.017-0.282-0.006-0.428v0c-0.076-0.485-0.353-0.839-0.831-1.064v0c-0.404-0.188-0.868-0.241-1.393-0.158v0l-3.268 0.514 0.041 0.259 0.777-0.122 0.842 5.35-0.777 0.122zM35.557 0.945l0.528-0.084c0.538-0.085 0.929 0.126 1.171 0.633v0c0.073 0.159 0.124 0.331 0.153 0.517v0c0.089 0.565-0.023 0.98-0.334 1.247v0c-0.13 0.123-0.295 0.2-0.495 0.231v0l-0.608 0.096z" fill="#e71c24" data-fill-palette-color="accent"></path><path d="M43.246 5.922l2.961 0.289c-0.024-0.171-0.105-0.27-0.244-0.297v0l-0.522-0.051 0.256-2.63 2.509 0.244-0.256 2.63-0.793-0.077-0.026 0.271 2.971 0.289c-0.024-0.171-0.105-0.27-0.245-0.297v0l-0.522-0.051 0.526-5.39 0.793 0.077 0.025-0.261-2.971-0.29-0.026 0.261 0.793 0.078-0.239 2.459-2.51-0.244 0.24-2.46 0.793 0.077 0.025-0.26-2.961-0.289-0.025 0.261 0.783 0.076-0.526 5.391-0.783-0.077z" fill="#e71c24" data-fill-palette-color="accent"></path><path d="M54.228 7.81l2.548 0.771c0.047-0.154 0.03-0.251-0.05-0.289v0c-0.03-0.016-0.065-0.03-0.103-0.041v0l-0.28-0.085-0.603-6.116-0.695-0.21-3.731 4.803-0.608-0.185-0.079 0.261 1.747 0.529c0.047-0.154 0.03-0.251-0.049-0.289v0c-0.03-0.016-0.065-0.03-0.103-0.042v0l-0.531-0.16 1.238-1.617 1.892 0.573 0.161 2.041-0.675-0.205zM54.611 2.962l0.179 2.436-1.661-0.503z" fill="#e71c24" data-fill-palette-color="accent"></path><path d="M57.318 8.821l2.654 1.344 0.123-0.243-0.711-0.36 1.107-2.187 0.432 0.219 0.088 3.108 1.562 0.779c0.067-0.132 0.057-0.231-0.03-0.298v0c-0.021-0.018-0.046-0.035-0.077-0.05v0l-0.117-0.059-0.206-2.987c0.712 0.142 1.264-0.004 1.657-0.438v0c0.097-0.102 0.178-0.219 0.246-0.351v0c0.222-0.438 0.204-0.888-0.052-1.349v0c-0.218-0.389-0.563-0.703-1.038-0.943v0l-2.951-1.494-0.119 0.234 0.702 0.355-2.446 4.832-0.701-0.355zM61.83 4.73l0.477 0.241c0.486 0.246 0.679 0.645 0.58 1.198v0c-0.034 0.171-0.093 0.341-0.178 0.509v0c-0.258 0.51-0.592 0.782-1.001 0.816v0c-0.178 0.023-0.356-0.011-0.536-0.102v0l-0.549-0.278z" fill="#e71c24" data-fill-palette-color="accent"></path><path d="M72.566 12.052l0.162-0.206-1.675-1.313-4.028 2.263 0.988-4.645-1.398-1.095-0.161 0.206 0.627 0.492-3.341 4.263-0.627-0.492-0.168 0.215 1.58 1.237c0.072-0.157 0.056-0.285-0.046-0.382v0l-0.413-0.323 2.308-2.946-0.871 4.546 0.135 0.105 4.818-2.682-2.905 3.708-0.627-0.492-0.168 0.214 2.302 1.804c0.072-0.157 0.059-0.283-0.038-0.376v0l-0.413-0.323 3.34-4.263z" fill="#e71c24" data-fill-palette-color="accent"></path><path d="M76.247 15.608v0c-0.57-0.671-1.262-1.059-2.073-1.162v0c-0.85-0.107-1.621 0.133-2.313 0.721v0c-0.789 0.671-1.162 1.482-1.12 2.434v0c0.032 0.723 0.298 1.379 0.799 1.969v0c0.57 0.671 1.264 1.057 2.081 1.156v0c0.837 0.092 1.599-0.154 2.285-0.738v0c0.835-0.71 1.217-1.542 1.147-2.497v0c-0.05-0.681-0.318-1.309-0.806-1.883zM71.782 19.403v0c-0.435-0.512-0.496-1.056-0.182-1.632v0c0.224-0.411 0.638-0.874 1.243-1.387v0c1.158-0.984 2.053-1.317 2.685-0.999v0c0.179 0.086 0.34 0.214 0.485 0.383v0c0.488 0.574 0.479 1.212-0.027 1.916v0c-0.242 0.338-0.591 0.701-1.047 1.088v0c-1.071 0.91-1.909 1.274-2.514 1.091v0c-0.228-0.071-0.442-0.224-0.643-0.46z" fill="#e71c24" data-fill-palette-color="accent"></path><path d="M81.433 23.567l-0.229 0.127 0.383 0.688-3.357 1.869 1.883-5.055-0.814-1.462-0.229 0.127 0.382 0.688-4.731 2.634-0.383-0.687-0.238 0.133 0.996 1.788c0.131-0.111 0.167-0.232 0.11-0.361v0l-0.279-0.503 3.612-2.011-2.035 5.508 0.363 0.444 4.926-2.742 0.387 0.696 0.23-0.128z" fill="#e71c24" data-fill-palette-color="accent"></path><path d="M77.826 29.944l0.999 2.909c0.146-0.093 0.202-0.208 0.169-0.346v0l-0.186-0.543 2.194-0.754 3.1 0.365c0.213 0.062 0.356 0.187 0.427 0.375v0c0.093 0.146 0.205 0.203 0.337 0.173v0l-0.567-1.651-0.248 0.086 0.256 0.744-3.04-0.375 2.136-2.258 0.245 0.715 0.248-0.085-0.904-2.633-0.248 0.086 0.151 0.438-2.412 2.727-2.127 0.73-0.272-0.791z" fill="#e71c24" data-fill-palette-color="accent"></path><path d="M2.429 54.802l0.868 2.846c0.149-0.088 0.209-0.201 0.181-0.34v0l-0.153-0.502 5.18-1.58 0.233 0.762 0.251-0.077-0.869-2.845-0.251 0.076 0.23 0.753-5.18 1.58-0.23-0.752z" fill="#e71c24" data-fill-palette-color="accent"></path><path d="M11.074 60.396l-0.237 0.113 0.338 0.71-3.471 1.649 2.206-4.922-0.718-1.513-0.237 0.113 0.338 0.71-4.893 2.324-0.337-0.71-0.246 0.116 0.878 1.85c0.135-0.109 0.179-0.226 0.134-0.354v0l-0.247-0.519 3.735-1.774-2.391 5.356 0.338 0.476 5.093-2.419 0.337 0.711 0.237-0.113z" fill="#e71c24" data-fill-palette-color="accent"></path><path d="M7.816 66.68l1.888 2.68c0.114-0.13 0.136-0.256 0.065-0.38v0l-0.389-0.552 4.428-3.12 0.098 0.141c0.275 0.39 0.295 0.787 0.062 1.19v0c-0.054 0.087-0.119 0.187-0.197 0.299v0l-0.545 0.767 0.168 0.239 1.708-1.253-2.956-4.197-1.755 1.187 0.168 0.239 0.906-0.255c0.428-0.129 0.764-0.135 1.01-0.021v0c0.161 0.076 0.307 0.208 0.438 0.395v0l0.099 0.14-4.428 3.119-0.546-0.775z" fill="#e71c24" data-fill-palette-color="accent"></path><path d="M17.393 71.824l0.197 0.202 1.341-1.355-3.445-3.557-0.188 0.182 0.547 0.565-3.89 3.768-0.548-0.565-0.195 0.189 3.444 3.558 1.398-1.297-0.197-0.203-0.654 0.31c-0.484 0.235-0.893 0.252-1.227 0.052v0c-0.094-0.068-0.185-0.148-0.274-0.24v0l-0.779-0.804 1.898-1.838 1.326 1.369 0.217-0.21-1.326-1.37 1.775-1.719 0.779 0.805c0.379 0.391 0.452 0.839 0.221 1.344v0c-0.025 0.061-0.052 0.12-0.081 0.177v0z" fill="#e71c24" data-fill-palette-color="accent"></path><path d="M16.056 75.995l2.407 1.749 0.16-0.22-0.644-0.469 1.441-1.982 0.391 0.284-0.407 3.083 1.417 1.017c0.087-0.12 0.093-0.219 0.018-0.298v0c-0.023-0.025-0.048-0.048-0.076-0.068v0l-0.098-0.071 0.272-2.982c0.675 0.249 1.242 0.196 1.7-0.16v0c0.116-0.091 0.217-0.196 0.304-0.316v0c0.289-0.397 0.343-0.844 0.164-1.34v0c-0.153-0.419-0.444-0.784-0.874-1.096v0l-2.676-1.945-0.155 0.212 0.637 0.463-3.184 4.381-0.636-0.462zM21.163 72.674l0.432 0.314c0.441 0.32 0.565 0.743 0.374 1.27v0c-0.065 0.169-0.15 0.327-0.257 0.474v0c-0.336 0.462-0.706 0.68-1.11 0.652v0c-0.179-0.005-0.35-0.067-0.513-0.186v0l-0.497-0.362z" fill="#e71c24" data-fill-palette-color="accent"></path><path d="M21.913 80.089l2.622 1.407c0.044-0.167 0.007-0.29-0.111-0.369v0l-0.462-0.248 2.561-4.772 0.702 0.377 0.124-0.231-2.622-1.407-0.124 0.231 0.693 0.372-2.561 4.772-0.693-0.372z" fill="#e71c24" data-fill-palette-color="accent"></path><path d="M31.068 77.531v0c-0.828-0.299-1.622-0.289-2.381 0.03v0c-0.789 0.323-1.337 0.911-1.645 1.765v0c-0.352 0.974-0.273 1.864 0.237 2.67v0c0.387 0.611 0.944 1.048 1.671 1.311v0c0.828 0.299 1.622 0.289 2.381-0.03v0c0.772-0.336 1.311-0.928 1.617-1.776v0c0.37-1.025 0.288-1.937-0.246-2.737v0c-0.388-0.569-0.933-0.98-1.634-1.233zM29.078 83.042v0c-0.632-0.228-0.959-0.671-0.979-1.329v0c-0.003-0.466 0.13-1.072 0.399-1.818v0c0.514-1.423 1.125-2.157 1.835-2.201v0c0.196-0.008 0.398 0.026 0.607 0.102v0c0.702 0.253 1.013 0.809 0.932 1.666v0c-0.042 0.414-0.165 0.902-0.368 1.464v0c-0.477 1.322-1.024 2.054-1.64 2.196v0c-0.239 0.049-0.501 0.023-0.786-0.08z" fill="#e71c24" data-fill-palette-color="accent"></path><path d="M33.629 84.655l2.939 0.462 0.042-0.269-0.787-0.123 0.381-2.421 0.478 0.075 1.04 2.93 1.725 0.261c0.023-0.146-0.017-0.237-0.12-0.274v0c-0.032-0.012-0.065-0.02-0.098-0.025v0l-0.12-0.019-1.115-2.779c0.714-0.085 1.195-0.391 1.441-0.917v0c0.062-0.133 0.104-0.273 0.127-0.419v0c0.076-0.485-0.078-0.907-0.464-1.267v0c-0.327-0.303-0.752-0.496-1.277-0.579v0l-3.268-0.514-0.04 0.259 0.777 0.122-0.842 5.35-0.777-0.122zM36.665 79.374l0.528 0.084c0.538 0.085 0.842 0.405 0.91 0.96v0c0.019 0.18 0.015 0.36-0.013 0.539v0c-0.089 0.565-0.319 0.926-0.691 1.085v0c-0.162 0.077-0.342 0.099-0.542 0.068v0l-0.608-0.095z" fill="#e71c24" data-fill-palette-color="accent"></path><path d="M43.665 85.666l2.961-0.288c-0.056-0.163-0.156-0.245-0.298-0.245v0l-0.522 0.051-0.256-2.63 2.51-0.245 0.256 2.63-0.793 0.078 0.026 0.271 2.961-0.289c-0.056-0.163-0.152-0.245-0.287-0.245v0l-0.522 0.05-0.525-5.39 0.783-0.076-0.025-0.261-2.962 0.288 0.026 0.261 0.793-0.077 0.239 2.459-2.509 0.245-0.24-2.46 0.793-0.077-0.025-0.261-2.961 0.289 0.025 0.261 0.783-0.077 0.525 5.391-0.783 0.076z" fill="#e71c24" data-fill-palette-color="accent"></path><path d="M55.469 83.615l2.538-0.769c-0.047-0.154-0.111-0.226-0.191-0.216v0c-0.034 0.003-0.07 0.011-0.11 0.023v0l-0.289 0.088-3.885-4.757-0.705 0.214-0.429 6.063-0.609 0.184 0.079 0.261 1.747-0.53c-0.047-0.154-0.114-0.225-0.201-0.213v0c-0.034 0.003-0.07 0.011-0.109 0.023v0l-0.531 0.161 0.136-2.023 1.892-0.573 1.263 1.599-0.675 0.204zM53.098 79.37l1.5 1.927-1.66 0.503z" fill="#e71c24" data-fill-palette-color="accent"></path><path d="M59.249 82.326l2.654-1.344-0.123-0.243-0.711 0.36-1.107-2.186 0.432-0.219 2.557 1.769 1.552-0.797c-0.067-0.132-0.153-0.183-0.257-0.152v0c-0.033 0.009-0.065 0.021-0.095 0.036v0l-0.108 0.055-2.529-1.602c0.53-0.487 0.741-1.016 0.632-1.587v0c-0.028-0.144-0.075-0.282-0.142-0.414v0c-0.222-0.438-0.594-0.69-1.118-0.757v0c-0.442-0.055-0.9 0.038-1.374 0.278v0l-2.951 1.494 0.118 0.234 0.702-0.355 2.446 4.832-0.701 0.355zM58.623 76.267l0.477-0.241c0.486-0.246 0.919-0.164 1.3 0.246v0c0.121 0.135 0.222 0.283 0.304 0.445v0c0.258 0.51 0.283 0.938 0.074 1.285v0c-0.086 0.157-0.22 0.281-0.399 0.372v0l-0.549 0.278z" fill="#e71c24" data-fill-palette-color="accent"></path><path d="M68.184 69.691l-0.162-0.207-1.675 1.313 1.227 4.459-4.267-2.076-1.397 1.095 0.162 0.206 0.627-0.491 3.341 4.263-0.627 0.491 0.168 0.214 1.579-1.238c-0.135-0.107-0.263-0.123-0.382-0.046v0l-0.413 0.324-2.302-2.938 4.191 1.931 0.143-0.112-1.452-5.32 2.905 3.707-0.627 0.492 0.168 0.214 2.302-1.804c-0.135-0.107-0.263-0.123-0.382-0.046v0l-0.413 0.323-3.341-4.263z" fill="#e71c24" data-fill-palette-color="accent"></path><path d="M70.279 66.657v0c-0.57 0.671-0.839 1.418-0.806 2.24v0c0.026 0.852 0.385 1.571 1.077 2.159v0c0.789 0.671 1.65 0.908 2.584 0.714v0c0.708-0.148 1.313-0.517 1.813-1.106v0c0.57-0.671 0.839-1.418 0.806-2.241v0c-0.044-0.841-0.41-1.553-1.097-2.136v0c-0.83-0.705-1.713-0.948-2.649-0.73v0c-0.669 0.164-1.245 0.53-1.728 1.1zM74.744 70.451v0c-0.435 0.512-0.965 0.663-1.588 0.451v0c-0.438-0.16-0.959-0.497-1.563-1.011v0c-1.153-0.98-1.626-1.809-1.418-2.489v0c0.061-0.186 0.164-0.364 0.307-0.533v0c0.483-0.569 1.112-0.665 1.887-0.289v0c0.373 0.184 0.787 0.47 1.243 0.858v0c1.071 0.91 1.565 1.678 1.482 2.305v0c-0.038 0.242-0.154 0.478-0.35 0.708z" fill="#e71c24" data-fill-palette-color="accent"></path><path d="M74.765 60.059l0.229 0.127 0.383-0.687 3.357 1.87-5.289 1.06-0.814 1.463 0.229 0.127 0.383-0.687 4.731 2.635-0.383 0.687 0.238 0.133 0.997-1.789c-0.166-0.047-0.288-0.014-0.366 0.097v0l-0.28 0.502-3.612-2.012 5.749-1.162 0.192-0.551-4.926-2.743 0.383-0.687-0.229-0.128z" fill="#e71c24" data-fill-palette-color="accent"></path><path d="M81.863 58.781l0.999-2.909c-0.172-0.016-0.287 0.04-0.346 0.169v0l-0.187 0.543-2.194-0.753-2.222-2.192c-0.132-0.173-0.168-0.36-0.107-0.559v0c0.016-0.172-0.037-0.286-0.16-0.343v0l-0.57 1.66 0.248 0.085 0.259-0.753 2.169 2.162-3.073 0.47 0.243-0.705-0.248-0.086-0.901 2.624 0.248 0.085 0.151-0.439 3.578-0.67 2.127 0.731-0.272 0.792z" fill="#e71c24" data-fill-palette-color="accent"></path><path d="M0.778 43.671c0-1.277 1.035-2.312 2.311-2.312 1.277 0 2.312 1.035 2.312 2.312 0 1.277-1.035 2.312-2.312 2.312-1.277 0-2.312-1.035-2.311-2.312z" fill="#e71c24" data-fill-palette-color="accent"></path><path d="M80.265 43.671c0-1.277 1.035-2.312 2.312-2.312 1.277 0 2.312 1.035 2.312 2.312 0 1.277-1.035 2.312-2.312 2.312-1.277 0-2.312-1.035-2.312-2.312z" fill="#e71c24" data-fill-palette-color="accent"></path></g><g id="text-1"></g></svg></g></svg></g></svg></g><defs></defs></svg><rect width="395.52" height="68.21368762860014" fill="none" stroke="none" visibility="hidden"></rect></g></svg></g></svg>